<?xml version="1.0" standalone="no"?>
<!DOCTYPE svg PUBLIC "-//W3C//DTD SVG 20010904//EN"
 "http://www.w3.org/TR/2001/REC-SVG-20010904/DTD/svg10.dtd">
<svg version="1.0" xmlns="http://www.w3.org/2000/svg"
 width="1038.000000pt" height="1038.000000pt" viewBox="0 0 1038.000000 1038.000000"
 preserveAspectRatio="xMidYMid meet">
<metadata>
Created by potrace 1.14, written by Peter Selinger 2001-2017
</metadata>
<g transform="translate(0.000000,1038.000000) scale(0.100000,-0.100000)"
fill="#000000" stroke="none">
<path d="M5567 8524 c-1 -1 -67 -5 -147 -8 -80 -4 -167 -9 -195 -11 -27 -2
-84 -7 -125 -10 -41 -3 -91 -8 -110 -10 -19 -2 -66 -7 -103 -10 -37 -4 -78 -8
-90 -11 -12 -2 -47 -6 -77 -9 -58 -6 -94 -10 -163 -21 -23 -3 -58 -8 -77 -10
-19 -2 -51 -6 -70 -9 -19 -3 -73 -13 -119 -20 -47 -8 -87 -13 -89 -10 -3 2
-12 0 -21 -4 -9 -5 -36 -12 -61 -15 -25 -3 -56 -8 -70 -11 -14 -3 -36 -7 -50
-9 -14 -2 -36 -7 -50 -10 -14 -3 -36 -8 -50 -10 -14 -2 -36 -7 -50 -10 -14 -3
-36 -8 -50 -10 -14 -3 -59 -12 -100 -21 -41 -9 -86 -19 -100 -21 -13 -3 -63
-14 -110 -25 -47 -12 -96 -23 -110 -25 -62 -12 -479 -122 -630 -165 -58 -17
-109 -32 -115 -33 -5 -1 -26 -7 -45 -13 -19 -7 -82 -26 -140 -43 -58 -18 -112
-34 -120 -37 -8 -4 -18 -7 -22 -8 -5 -2 -9 -3 -10 -5 -2 -1 -10 -3 -18 -5 -8
-1 -91 -28 -185 -60 -93 -31 -174 -58 -180 -59 -5 -2 -23 -8 -38 -14 -16 -7
-30 -12 -33 -12 -6 0 -246 -86 -299 -107 -66 -26 -79 -30 -110 -42 -16 -6 -43
-16 -60 -22 -16 -7 -32 -13 -35 -14 -8 -1 -303 -117 -335 -131 -16 -7 -86 -36
-155 -64 -69 -29 -149 -63 -178 -76 -29 -13 -55 -24 -57 -24 -2 0 -35 -14 -72
-31 -38 -17 -99 -44 -138 -61 -141 -63 -244 -112 -241 -115 2 -2 54 10 116 27
62 18 119 33 129 35 9 3 50 14 91 25 78 21 250 67 285 75 11 3 101 25 200 50
99 24 191 46 205 49 14 2 48 9 75 16 28 6 58 13 68 15 10 2 26 6 35 9 9 3 31
8 47 11 47 8 75 14 93 19 17 5 26 7 107 21 22 4 54 11 70 15 17 5 46 11 65 14
19 3 49 7 65 11 46 9 186 34 225 40 19 3 46 7 60 10 14 2 43 7 65 10 23 3 50
7 61 9 22 4 112 17 154 21 14 2 43 5 65 9 22 3 65 8 95 11 30 3 66 7 80 10 14
2 54 6 90 10 36 3 85 7 110 10 25 3 83 7 130 10 47 3 130 9 185 13 130 9 768
8 910 -1 201 -13 271 -19 380 -32 29 -4 106 -13 170 -20 17 -2 44 -6 60 -10
17 -3 52 -8 79 -11 27 -3 52 -7 55 -9 4 -2 25 -6 47 -9 22 -4 51 -9 64 -11 14
-3 41 -8 60 -11 19 -3 43 -7 52 -10 22 -6 57 -14 88 -19 14 -2 39 -8 57 -14
17 -5 34 -7 37 -4 2 3 11 1 18 -3 7 -5 63 -21 123 -36 61 -16 117 -30 125 -32
71 -19 302 -90 327 -102 17 -8 45 -17 62 -20 17 -4 34 -11 37 -15 3 -5 14 -9
25 -9 10 0 27 -5 37 -10 9 -6 48 -21 85 -34 48 -18 69 -21 72 -13 3 7 23 66
45 132 22 66 43 127 47 135 3 8 7 20 9 25 1 6 21 64 44 130 23 66 43 128 45
138 2 9 7 22 10 28 4 5 22 56 41 112 19 56 38 111 43 122 5 11 16 40 24 65 15
46 93 269 107 305 4 11 8 23 9 27 1 4 8 23 17 43 11 27 11 35 2 36 -7 1 -22 3
-33 4 -21 3 -96 9 -270 21 -88 6 -672 13 -678 8z"/>
<path d="M6733 8323 c-33 -98 -93 -270 -133 -383 -39 -113 -73 -213 -75 -222
-2 -9 -9 -26 -15 -38 -6 -12 -13 -29 -15 -38 -4 -17 -48 -146 -245 -707 -55
-159 -103 -297 -105 -305 -5 -16 -69 -196 -79 -220 -3 -8 -12 -35 -20 -60 -36
-118 -127 -365 -136 -370 -5 -3 -65 -4 -132 -3 -68 2 -136 3 -153 3 -16 -1
-34 -1 -40 -1 -5 1 -109 3 -230 5 -121 2 -366 7 -545 11 -349 7 -595 11 -1088
20 -173 3 -317 7 -320 9 -4 2 -16 0 -27 -5 -20 -8 -20 -8 0 -8 12 -1 26 -6 32
-12 6 -6 17 -12 24 -13 8 -2 25 -8 39 -13 168 -70 379 -164 548 -244 68 -33
127 -59 133 -59 5 0 9 -5 9 -12 0 -6 3 -9 6 -6 5 6 313 -147 474 -236 36 -19
81 -43 100 -53 19 -9 104 -57 189 -105 84 -48 158 -88 162 -88 5 0 9 -4 9 -10
0 -5 6 -10 14 -10 7 0 19 -7 26 -15 7 -8 16 -13 20 -10 5 3 10 2 12 -2 3 -8
155 -103 164 -103 3 0 10 -5 17 -10 7 -6 53 -36 102 -67 103 -64 408 -264 415
-272 3 -3 13 -10 22 -16 54 -32 404 -281 453 -322 6 -5 26 -20 45 -33 19 -14
37 -27 40 -30 3 -3 46 -37 95 -75 50 -38 92 -72 95 -75 3 -3 21 -17 40 -30 19
-13 40 -29 45 -35 6 -6 35 -31 65 -56 30 -24 60 -48 67 -54 6 -5 24 -20 40
-32 16 -12 41 -33 54 -45 14 -13 49 -43 79 -68 51 -43 86 -72 149 -130 16 -14
61 -54 101 -90 40 -36 105 -94 144 -130 110 -100 601 -594 696 -699 110 -122
116 -128 175 -196 28 -32 57 -66 65 -75 130 -149 309 -371 328 -406 22 -40
125 -185 129 -180 2 1 -4 27 -13 56 -9 30 -18 61 -20 69 -3 15 -75 252 -130
430 -15 47 -27 89 -29 95 -1 6 -5 18 -8 26 -6 14 -47 154 -52 175 -1 6 -5 17
-8 25 -11 29 -31 95 -32 105 0 6 -13 49 -28 97 -15 48 -30 95 -32 105 -2 10
-10 38 -18 63 -15 43 -37 118 -93 310 -14 47 -28 92 -31 100 -3 8 -7 20 -8 25
-4 15 -50 168 -80 265 -14 47 -32 108 -40 135 -7 28 -28 95 -45 150 -17 55
-33 107 -35 115 -2 8 -4 15 -5 15 -2 0 -4 11 -15 60 -6 30 -3 33 110 110 64
44 144 100 179 125 35 25 72 51 82 58 11 7 42 28 69 48 28 20 82 57 120 82 39
26 72 49 75 53 3 3 34 25 70 49 36 24 67 47 68 52 2 4 8 8 13 8 8 0 102 63
144 97 6 5 53 37 105 73 52 35 97 68 98 72 2 4 8 8 13 8 6 0 15 5 22 11 12 10
324 228 407 284 25 17 54 38 64 48 11 9 23 17 28 17 4 0 16 7 25 15 10 8 99
71 198 139 99 69 185 129 192 135 7 6 16 11 20 11 5 0 19 10 33 23 14 13 34
28 45 35 16 9 3 12 -70 12 -49 1 -166 3 -260 5 -93 2 -277 6 -408 9 -132 2
-241 7 -244 9 -2 3 -18 1 -34 -3 -16 -5 -29 -6 -29 -2 0 4 -73 8 -163 8 -89 1
-288 5 -442 8 -320 7 -787 17 -920 20 -49 1 -96 5 -102 9 -11 7 -22 38 -39
107 -2 8 -30 103 -64 210 -33 107 -62 204 -64 215 -3 11 -14 49 -26 85 -12 36
-23 72 -26 80 -16 59 -39 137 -83 280 -29 91 -54 174 -56 184 -2 11 -13 47
-24 80 -27 84 -52 168 -55 186 -2 8 -8 28 -14 43 -7 16 -12 32 -12 36 0 8 -47
164 -57 191 -3 8 -8 23 -10 34 -2 10 -12 46 -24 80 -11 33 -22 71 -25 84 -3
13 -12 44 -21 70 -8 26 -16 52 -17 57 -1 6 -9 33 -18 60 -9 28 -26 84 -38 125
-12 41 -26 86 -30 100 -5 14 -18 59 -30 100 -12 41 -26 83 -31 92 -5 10 -9 27
-9 38 0 48 -19 9 -77 -157z"/>
<path d="M2528 7395 c-2 -2 -50 -6 -108 -9 -58 -4 -123 -8 -145 -10 -22 -2
-79 -7 -127 -11 -49 -3 -96 -8 -105 -9 -10 -2 -54 -7 -97 -11 -43 -4 -88 -9
-100 -11 -12 -2 -43 -6 -71 -9 -27 -2 -61 -7 -75 -9 -14 -3 -45 -7 -70 -10
-51 -6 -90 -12 -205 -32 -44 -7 -93 -16 -110 -18 -29 -4 -122 -20 -175 -31
-14 -3 -36 -7 -50 -10 -14 -3 -36 -7 -50 -10 -58 -12 -96 -19 -115 -21 -11 -1
-20 -3 -20 -4 0 -2 -18 -6 -65 -15 -19 -3 -53 -10 -75 -16 -22 -5 -51 -12 -65
-14 -14 -3 -36 -8 -50 -12 -14 -3 -33 -7 -42 -8 -10 -2 -21 -4 -25 -5 -5 -2
-12 -4 -18 -5 -5 -2 -13 -4 -17 -5 -13 -4 -42 -11 -156 -35 -24 -5 -51 -12
-80 -20 -63 -17 -97 -23 -103 -19 -4 2 -10 0 -14 -6 -4 -7 18 -9 67 -5 40 3
98 8 128 10 313 24 968 24 1295 0 28 -2 88 -6 135 -9 47 -3 112 -8 145 -11 33
-3 87 -8 120 -10 32 -3 73 -7 90 -9 16 -3 64 -8 105 -12 41 -3 84 -8 95 -10
35 -7 129 -18 158 -18 15 -1 27 -3 27 -6 0 -3 8 -6 18 -6 15 0 181 -23 207
-29 23 -5 82 -15 105 -19 25 -4 91 -16 120 -22 139 -27 231 -47 305 -64 50
-12 98 -24 108 -26 10 -1 52 -13 95 -24 42 -12 87 -24 100 -26 13 -3 42 -11
65 -18 23 -7 62 -19 87 -26 53 -15 278 -88 300 -97 8 -3 23 -8 32 -9 9 -2 42
-15 73 -28 30 -14 56 -25 58 -25 8 1 157 -58 237 -93 25 -11 61 -27 80 -35 19
-9 107 -51 195 -95 l160 -81 160 -3 c276 -5 668 -15 678 -17 9 -2 52 91 62
133 2 8 33 102 70 209 36 106 65 194 63 195 -17 11 -248 114 -338 151 -63 26
-124 51 -135 56 -11 5 -47 18 -80 29 -33 12 -69 25 -80 30 -11 5 -49 19 -85
30 -36 12 -72 24 -80 27 -8 3 -17 7 -20 8 -3 0 -32 9 -65 20 -70 21 -73 22
-103 29 -12 3 -26 7 -30 10 -11 7 -348 94 -391 101 -19 3 -37 7 -40 9 -3 2
-22 7 -41 10 -19 3 -46 8 -60 11 -14 3 -50 11 -80 16 -76 15 -85 17 -85 19 0
1 -16 3 -35 5 -19 1 -51 6 -70 9 -48 9 -99 16 -140 22 -19 2 -53 7 -75 10 -44
6 -57 8 -160 19 -84 9 -104 11 -220 20 -50 3 -104 8 -120 11 -31 5 -872 14
-877 9z"/>
<path d="M280 6940 c-35 -6 -35 -6 15 -14 28 -5 57 -10 65 -11 8 -1 76 -14
150 -29 74 -15 146 -29 160 -32 14 -2 36 -7 50 -10 14 -4 34 -8 45 -10 11 -1
29 -5 40 -8 76 -17 123 -28 140 -32 40 -8 500 -122 585 -145 19 -5 46 -12 59
-15 14 -3 28 -7 33 -10 4 -3 16 -7 25 -9 43 -9 297 -81 323 -92 8 -3 20 -7 26
-8 35 -8 330 -108 414 -140 37 -14 72 -27 80 -30 3 -1 19 -7 35 -14 17 -7 59
-24 95 -38 36 -14 70 -28 75 -32 6 -3 127 -7 270 -8 143 -1 319 -4 390 -6 72
-3 254 -8 405 -11 l275 -6 -40 21 c-22 11 -47 22 -55 24 -8 2 -40 14 -70 28
-54 23 -90 39 -100 42 -3 1 -18 7 -35 14 -16 6 -55 21 -85 32 -30 12 -64 25
-75 29 -11 5 -63 23 -115 40 -52 18 -104 36 -115 40 -11 5 -67 23 -125 40
-150 45 -173 52 -190 58 -8 3 -19 6 -25 7 -5 2 -37 10 -70 19 -33 9 -67 18
-75 20 -8 2 -51 13 -95 25 -44 11 -91 22 -105 24 -14 3 -52 12 -85 20 -33 9
-76 19 -95 22 -19 3 -64 12 -100 20 -36 8 -81 17 -100 19 -19 3 -46 8 -60 11
-29 6 -120 22 -170 29 -74 12 -177 27 -215 32 -22 3 -51 8 -65 10 -14 3 -52 7
-85 10 -33 3 -71 7 -85 10 -14 2 -54 6 -90 9 -36 3 -83 7 -105 10 -39 4 -107
10 -237 20 -93 7 -307 17 -445 20 -66 1 -126 6 -132 9 -6 4 -11 4 -11 -1 0 -4
-33 -7 -72 -6 -40 1 -73 2 -73 3 0 5 -126 4 -155 0z"/>
<path d="M1060 6563 c0 -4 49 -28 108 -52 59 -24 135 -57 170 -73 34 -15 64
-28 66 -28 3 0 52 -22 111 -50 59 -27 109 -50 112 -50 5 0 54 -23 333 -158
185 -89 328 -159 350 -172 8 -4 40 -21 70 -35 64 -32 262 -135 335 -175 28
-15 82 -44 120 -65 39 -21 88 -49 110 -62 22 -12 51 -28 65 -35 14 -7 90 -51
170 -97 80 -45 165 -94 190 -108 25 -14 52 -32 61 -39 8 -8 19 -14 23 -14 3 0
25 -12 49 -27 73 -46 310 -193 381 -236 11 -7 25 -16 30 -20 6 -4 63 -41 126
-82 123 -79 131 -85 191 -127 21 -16 43 -28 48 -28 5 0 11 -4 13 -8 2 -5 39
-33 83 -62 44 -30 85 -58 90 -62 6 -4 64 -46 130 -93 66 -46 129 -91 140 -100
11 -9 70 -52 130 -98 61 -45 112 -84 115 -87 3 -3 43 -34 90 -70 47 -35 91
-70 98 -77 11 -11 73 -59 91 -69 5 -4 -30 -107 -42 -121 -5 -7 -7 -13 -4 -13
3 0 -19 -71 -50 -157 -30 -87 -96 -275 -145 -418 -49 -143 -101 -291 -115
-330 -13 -38 -26 -77 -28 -85 -2 -8 -12 -35 -21 -60 -28 -77 -96 -275 -98
-285 -1 -5 -4 -14 -7 -20 -6 -10 -41 -110 -45 -130 -1 -5 -25 -73 -52 -150
-27 -77 -66 -189 -87 -250 -20 -60 -41 -119 -45 -130 -16 -37 -30 -88 -26 -92
2 -2 38 21 80 52 43 30 81 55 86 55 4 0 10 4 12 9 2 4 35 30 73 56 39 26 72
51 75 55 3 4 16 13 29 20 14 7 30 17 35 22 22 18 207 148 212 148 3 0 10 5 17
11 9 8 474 336 537 379 35 24 186 130 195 138 6 4 104 73 219 152 115 80 217
153 227 163 11 9 19 14 19 10 0 -5 4 -3 8 2 4 6 36 30 72 54 36 25 67 47 70
50 9 11 69 51 75 51 4 0 12 6 19 13 8 6 24 19 36 27 12 8 42 30 66 48 l44 33
-38 32 c-20 17 -52 46 -69 64 -18 17 -33 30 -33 28 0 -3 -21 15 -46 38 -73 67
-99 90 -144 127 -23 19 -50 42 -59 50 -16 16 -185 156 -209 175 -7 6 -27 22
-43 37 -16 16 -32 28 -35 28 -2 0 -35 25 -72 55 -37 31 -71 59 -77 63 -16 12
-169 131 -180 140 -35 28 -279 208 -370 272 -38 27 -75 54 -82 60 -7 5 -16 10
-22 10 -5 0 -11 4 -13 8 -2 7 -233 168 -296 207 -9 6 -63 40 -120 78 -56 37
-106 67 -111 67 -4 0 -16 9 -26 20 -10 11 -22 20 -27 20 -5 0 -35 17 -66 38
-31 21 -69 44 -84 51 -16 8 -28 18 -28 23 0 4 -6 8 -13 8 -7 0 -22 8 -33 18
-10 10 -71 49 -134 86 -63 38 -127 77 -142 87 -15 11 -30 19 -33 19 -3 0 -22
11 -43 24 -20 13 -62 37 -92 53 -30 16 -80 44 -110 60 -270 150 -701 364 -960
478 -96 42 -188 82 -205 90 -16 7 -55 23 -85 35 -30 12 -68 28 -85 35 -47 22
-320 124 -330 125 -3 0 -18 6 -33 13 -64 33 -737 249 -807 260 -11 1 -24 5
-30 9 -5 3 -26 9 -45 14 -19 4 -42 9 -50 11 -20 5 -48 10 -90 18 -19 4 -43 11
-52 16 -10 5 -18 6 -18 2z"/>
</g>
</svg>
