<?xml version="1.0" encoding="UTF-8"?>
<svg id="Layer_1" data-name="Layer 1" xmlns="http://www.w3.org/2000/svg" version="1.1" viewBox="0 0 288 288">
  <defs>
    <style>
      .cls-1 {
        fill: #aacdec;
      }

      .cls-1, .cls-2, .cls-3, .cls-4, .cls-5 {
        stroke-width: 0px;
      }

      .cls-6 {
        fill: none;
        stroke: #231f20;
        stroke-miterlimit: 10;
        stroke-width: .4px;
      }

      .cls-2 {
        fill: #1951a1;
      }

      .cls-3 {
        fill: #ffd886;
      }

      .cls-4 {
        fill: #f1ab3c;
      }

      .cls-5 {
        fill: #c3dcec;
      }
    </style>
  </defs>
  <path class="cls-2" d="M148.2,150.5"/>
  <path class="cls-2" d="M148.2,150.5"/>
  <g>
    <path class="cls-2" d="M46,164.3c0-12.2,8.4-22.1,21-22.1s11.2,2,15.2,7.6v-22.5c0-2,1.2-3.1,3.1-3.1h2.5c2,0,3.1,1.1,3.1,3.1v55.2c0,2-1.1,3.1-3.1,3.1h-2.5c-2,0-3.1-1.1-3.1-3.1v-3.6c-4,5.7-9.5,7.6-15.2,7.6-12.6,0-21-10-21-22.2ZM82.4,164.3c0-8.4-5.8-14.6-14.2-14.6s-13.5,6.7-13.5,14.6,4.9,14.6,13.5,14.6,14.1-6.2,14.2-14.6Z"/>
    <path class="cls-2" d="M107.8,201l6.5-17.1-16.3-37.3c-.9-2.1,0-3.6,2.4-3.6h3.4c1.8,0,2.9.8,3.5,2.4l11.8,28.8,10.9-28.7c.6-1.7,1.9-2.5,3.6-2.5h3.5c2.3,0,3.3,1.4,2.4,3.6l-23.7,55.6c-.7,1.7-1.8,2.4-3.6,2.4h-2c-2.3,0-3.2-1.4-2.4-3.6Z"/>
    <path class="cls-2" d="M143,164.3c0-12.2,8.4-22.1,21-22.1s11.2,2,15.2,7.6v-3.6c0-2,1.2-3.1,3.1-3.1h2.5c2,0,3.1,1.1,3.1,3.1v36.4c0,2-1.1,3.1-3.1,3.1h-2.5c-2,0-3.1-1.1-3.1-3.1v-3.6c-4,5.7-9.5,7.6-15.2,7.6-12.6,0-21-10-21-22.2ZM179.3,164.3c0-8.4-5.8-14.6-14.2-14.6s-13.5,6.7-13.5,14.6,4.9,14.6,13.5,14.6,14.1-6.2,14.2-14.6Z"/>
    <path class="cls-2" d="M196.7,164.3c0-12.2,8.4-22.1,21-22.1s11.2,2,15.2,7.6v-22.5c0-2,1.2-3.1,3.1-3.1h2.5c2,0,3.1,1.1,3.1,3.1v55.2c0,2-1.1,3.1-3.1,3.1h-2.5c-2,0-3.1-1.1-3.1-3.1v-3.6c-4,5.7-9.5,7.6-15.2,7.6-12.6,0-21-10-21-22.2ZM233.1,164.3c0-8.4-5.8-14.6-14.2-14.6s-13.5,6.7-13.5,14.6,4.9,14.6,13.5,14.6,14.1-6.2,14.2-14.6Z"/>
  </g>
  <g>
    <path class="cls-2" d="M128,194.9c0-.5.4-.9.9-.9s.9.4.9.9-.4.9-.9.9-.9-.4-.9-.9ZM128.2,203.1v-5.7c0-.3.2-.5.5-.5h.4c.3,0,.5.2.5.5v5.7c0,.3-.2.5-.5.5h-.4c-.3,0-.5-.2-.5-.5Z"/>
    <path class="cls-2" d="M132.4,203.1v-5.7c0-.3.2-.5.5-.5h.4c.3,0,.5.2.5.5v.8c.3-.9,1.1-1.4,2.1-1.4s1.6.2,2.1,1.4c.6-1.1,1.4-1.4,2.2-1.4,1.6,0,2.5.9,2.5,3v3.3c0,.3-.2.5-.5.5h-.4c-.3,0-.5-.2-.5-.5v-3.3c0-1.3-.6-1.8-1.3-1.8s-1.7.4-1.8,2.3v2.8c0,.3-.2.5-.5.5h-.4c-.3,0-.5-.2-.5-.5v-3.3c0-1.3-.6-1.8-1.3-1.8s-1.8.5-1.8,2.5v2.6c0,.3-.2.5-.5.5h-.4c-.3,0-.5-.2-.5-.5Z"/>
    <path class="cls-2" d="M145.4,203.1v-5.7c0-.3.2-.5.5-.5h.4c.3,0,.5.2.5.5v.8c.3-.9,1.1-1.4,2.1-1.4s1.6.2,2.1,1.4c.6-1.1,1.4-1.4,2.2-1.4,1.6,0,2.5.9,2.5,3v3.3c0,.3-.2.5-.5.5h-.4c-.3,0-.5-.2-.5-.5v-3.3c0-1.3-.6-1.8-1.3-1.8s-1.7.4-1.8,2.3v2.8c0,.3-.2.5-.5.5h-.4c-.3,0-.5-.2-.5-.5v-3.3c0-1.3-.6-1.8-1.3-1.8s-1.8.5-1.8,2.5v2.6c0,.3-.2.5-.5.5h-.4c-.3,0-.5-.2-.5-.5Z"/>
    <path class="cls-2" d="M158.2,194.9c0-.5.4-.9.9-.9s.9.4.9.9-.4.9-.9.9-.9-.4-.9-.9ZM158.4,203.1v-5.7c0-.3.2-.5.5-.5h.4c.3,0,.5.2.5.5v5.7c0,.3-.2.5-.5.5h-.4c-.3,0-.5-.2-.5-.5Z"/>
    <path class="cls-2" d="M163.1,206c-.2-.2-.3-.4-.1-.7v-.2c.3-.3.5-.3.8-.2.6.4,1.2.5,1.9.5,1.3,0,2.1-.7,2.1-2.1v-.8c-.6.9-1.5,1.2-2.4,1.2-2,0-3.3-1.6-3.3-3.5s1.3-3.4,3.3-3.4,1.7.3,2.4,1.2v-.6c0-.3.2-.5.5-.5h.4c.3,0,.5.2.5.5v6c0,2.2-1.6,3.2-3.5,3.2s-1.9-.3-2.5-.7ZM167.8,200.3c0-1.3-.9-2.3-2.2-2.3s-2.1,1-2.1,2.3.8,2.3,2.1,2.3,2.2-1,2.2-2.3Z"/>
    <path class="cls-2" d="M171.9,203.1v-5.7c0-.3.2-.5.5-.5h.4c.3,0,.5.2.5.5v1c.2-1.1,1-1.6,1.8-1.6h.3c.3,0,.3.3.3.5v.4c0,.3-.1.5-.4.4-.1,0-.2,0-.4,0-.5,0-1.7.2-1.7,2.9v2c0,.3-.2.5-.5.5h-.4c-.3,0-.5-.2-.5-.5Z"/>
    <path class="cls-2" d="M177,200.3c0-1.9,1.3-3.4,3.3-3.4s1.7.3,2.4,1.2v-.6c0-.3.2-.5.5-.5h.4c.3,0,.5.2.5.5v5.7c0,.3-.2.5-.5.5h-.4c-.3,0-.5-.2-.5-.5v-.6c-.6.9-1.5,1.2-2.4,1.2-2,0-3.3-1.6-3.3-3.5ZM182.6,200.3c0-1.3-.9-2.3-2.2-2.3s-2.1,1-2.1,2.3.8,2.3,2.1,2.3,2.2-1,2.2-2.3Z"/>
    <path class="cls-2" d="M187.1,201.5v-3.5h-.8c-.2,0-.3-.1-.3-.3v-.5c0-.2,0-.3.3-.3h.8l.2-1.5c0-.2.2-.4.4-.4h.3c.3,0,.4.2.4.4v1.5h1.8c.2,0,.3,0,.3.3v.5c0,.2,0,.3-.3.3h-1.8v3.5c0,.7.3,1,.8,1s.8-.2.8-.7,0-.1,0-.3c0-.2,0-.3.2-.3h.6c.2,0,.3,0,.3.2,0,.2,0,.5,0,.5,0,1-.7,1.7-2,1.7s-2.1-.5-2.1-2.2Z"/>
    <path class="cls-2" d="M192.9,194.9c0-.5.4-.9.9-.9s.9.4.9.9-.4.9-.9.9-.9-.4-.9-.9ZM193.1,203.1v-5.7c0-.3.2-.5.5-.5h.4c.3,0,.5.2.5.5v5.7c0,.3-.2.5-.5.5h-.4c-.3,0-.5-.2-.5-.5Z"/>
    <path class="cls-2" d="M196.8,200.3c0-1.9,1.6-3.4,3.5-3.4s3.5,1.6,3.5,3.4-1.6,3.5-3.5,3.5-3.5-1.5-3.5-3.5ZM202.5,200.3c0-1.3-.9-2.3-2.1-2.3s-2.1,1-2.1,2.3,1,2.3,2.1,2.3,2.1-1,2.1-2.3Z"/>
    <path class="cls-2" d="M206.1,203.1v-5.7c0-.3.2-.5.5-.5h.4c.3,0,.5.2.5.5v.8c.3-.9,1.1-1.4,2.2-1.4s2.5.9,2.5,3v3.3c0,.3-.2.5-.5.5h-.4c-.3,0-.5-.2-.5-.5v-3.2c0-1.4-.6-1.8-1.3-1.8s-2.1.5-2.1,2.5v2.6c0,.3-.2.5-.5.5h-.4c-.3,0-.5-.2-.5-.5Z"/>
    <path class="cls-2" d="M219.2,203.1v-8.6c0-.3.2-.5.5-.5h.4c.3,0,.5.2.5.5v8.6c0,.3-.2.5-.5.5h-.4c-.3,0-.5-.2-.5-.5Z"/>
    <path class="cls-2" d="M222.9,200.3c0-1.9,1.3-3.4,3.3-3.4s1.7.3,2.4,1.2v-.6c0-.3.2-.5.5-.5h.4c.3,0,.5.2.5.5v5.7c0,.3-.2.5-.5.5h-.4c-.3,0-.5-.2-.5-.5v-.6c-.6.9-1.5,1.2-2.4,1.2-2,0-3.3-1.6-3.3-3.5ZM228.5,200.3c0-1.3-.9-2.3-2.2-2.3s-2.1,1-2.1,2.3.8,2.3,2.1,2.3,2.2-1,2.2-2.3Z"/>
    <path class="cls-2" d="M234.2,203.2l-2.1-5.7c-.1-.3,0-.5.4-.5h.4c.3,0,.5.1.6.4l1.5,4.4,1.3-4.2c0-.3.3-.4.5-.4h.3c.3,0,.4.1.5.4l1.4,4.2,1.5-4.4c0-.3.3-.4.6-.4h.4c.4,0,.5.2.4.5l-2,5.7c-.1.3-.3.4-.6.4h-.4c-.3,0-.4-.1-.5-.4l-1.3-4.1-1.3,4.1c0,.3-.3.4-.5.4h-.4c-.3,0-.4-.1-.5-.4Z"/>
  </g>
  <path class="cls-6" d="M164.5,96.4"/>
  <path class="cls-1" d="M143,101.6h5.7c-6.5-2.8-15.1-5.1-26.8-4.8,3.2.5,8.3,1.6,12.9,3.1,1.5.5,3,1,4.6,1.7h3.7Z"/>
  <path class="cls-2" d="M163.1,95.1l1.5-4.4,1.7-4.8c-13.9-1.4-30.4,3.3-45,10,10.3-2.8,26.2-7.1,41.8-.8Z"/>
  <path class="cls-5" d="M160.7,102l1.3-3.8c-17-8.3-34.4-3.3-40.4-1.9,1.8-.1,2.9-.3,5.1-.3s3.7,0,5.7.2c9.2.6,16.7,2.5,22.4,5.7h5.9Z"/>
  <path class="cls-4" d="M181.9,132l-5.2-17.1,15.4-10.7-18.8-.4-5.4-18-6.2,17.7-17.9-.4c22.7,9.3,34.9,24.4,38.1,28.8Z"/>
  <g>
    <path class="cls-3" d="M151.1,109.3h0c-8.1-4.9-15.1-7.7-20.2-9.2,0,0,0,0,0,0-.8-.2-1.5-.4-2.1-.6,0,0,0,0-.1,0-.3,0-.6-.2-.9-.2,6.6,2.7,18.7,8.4,29.5,17.2l-5.4,15.7,15.5-10.8c-5.9-5.4-10.9-8.8-16.2-12.1Z"/>
    <path class="cls-3" d="M181.9,132l-.3-1.1c-.2,0-.4-.2-.7-.3.4.5.7.9,1,1.3Z"/>
  </g>
</svg>