<?xml version="1.0" encoding="UTF-8"?>
<svg id="Layer_1" data-name="Layer 1" xmlns="http://www.w3.org/2000/svg" version="1.1" viewBox="0 0 519 345">
  <defs>
    <style>
      .cls-1 {
        fill: #aacdec;
      }

      .cls-1, .cls-2, .cls-3, .cls-4, .cls-5 {
        stroke-width: 0px;
      }

      .cls-2 {
        fill: #f1ab3c;
      }

      .cls-6 {
        fill: none;
        stroke: #231f20;
        stroke-miterlimit: 10;
        stroke-width: 2.9px;
      }

      .cls-3 {
        fill: #ffd886;
      }

      .cls-4 {
        fill: #c3dcec;
      }

      .cls-5 {
        fill: #1951a1;
      }
    </style>
  </defs>
  <path class="cls-6" d="M315.2,82.7"/>
  <path class="cls-1" d="M161.5,119.6l40.8,1c-46.7-20.9-108.4-36.9-192-35.5,22.8,3.4,59.3,11.7,91.9,21.9,10.7,3.4,21.9,7.3,33.1,12.2h26.3v.5Z"/>
  <path class="cls-5" d="M305,73l10.7-31.1,12.2-34.5C228.1-2.4,110,30.7,5.5,79.3c73.9-20.4,187.6-51,299.5-6.3Z"/>
  <path class="cls-4" d="M287.9,122.1l9.2-26.7C175.2,36,50.2,72,7.4,81.7c13.1-1,20.9-1.9,36.5-1.9s26.7,0,40.8,1c65.6,3.9,119.6,18,160.4,40.3l42.3,1h.5Z"/>
  <path class="cls-2" d="M440.1,337.4l-36.9-122.5,110.4-76.8-134.7-2.9L340,6.4l-44.2,126.9-128.3-2.4c162.9,66.1,249.9,175,272.7,206.1v.5Z"/>
  <g>
    <path class="cls-3" d="M219.9,175.1h0c-57.8-35.5-108.4-54.9-144.9-65.6h0c-5.3-1.5-10.7-2.9-15.6-4.4h-1c-2.4-.5-4.4-1-6.8-1.5,47.2,19.4,134.2,60.8,211.5,123.5l-38.9,112.3,110.8-77.8c-42.3-38.4-77.8-63.2-115.7-86.5h.5Z"/>
    <path class="cls-3" d="M440.1,337.4l-2.4-7.3c-1.5-.5-3.4-1-4.9-1.9,2.9,3.4,5.3,6.8,6.8,9.2h.5Z"/>
  </g>
</svg>